<svg width="500" height="139" viewBox="0 0 500 139" fill="none" xmlns="http://www.w3.org/2000/svg">
<circle cx="84.4941" cy="69.1319" r="65.2913" stroke="white" stroke-width="7.68132"/>
<line x1="168.989" y1="69.1327" x2="4.56085e-05" y2="69.1326" stroke="white" stroke-width="7.68132"/>
<line x1="84.4947" y1="99.8574" x2="84.4947" y2="38.4068" stroke="white" stroke-width="7.68132"/>
<path d="M194.128 43.8686H201.669V18.8555H210.971V43.8686H226.054V52.4159H210.971V98.2943H226.683V106.842H216.753C212.228 106.842 208.583 105.459 205.817 102.694C203.052 99.9283 201.669 96.2832 201.669 91.7582V52.4159H194.128V43.8686Z" fill="white"/>
<path d="M234.517 106.842V43.9943H242.687L243.818 53.7985C244.908 51.536 246.206 49.6925 247.715 48.268C249.223 46.8434 250.815 45.7541 252.491 44.9999C254.167 44.1619 255.885 43.5754 257.645 43.2402C259.404 42.905 261.038 42.7374 262.547 42.7374V52.0388C262.211 51.955 261.876 51.9131 261.541 51.9131C261.29 51.9131 261.038 51.9131 260.787 51.9131C258.692 51.9131 256.639 52.2902 254.628 53.0443C252.617 53.7985 250.815 54.8879 249.223 56.3124C247.631 57.6531 246.332 59.2872 245.327 61.2145C244.321 63.1418 243.818 65.2786 243.818 67.6249V106.842H234.517Z" fill="white"/>
<path d="M263.461 90.3756C263.461 86.5209 264.341 83.1691 266.1 80.32C267.86 77.471 270.123 75.1247 272.888 73.2811C275.737 71.4376 278.921 70.0969 282.441 69.2589C286.044 68.3372 289.647 67.8763 293.25 67.8763H305.191V65.8652C305.191 63.9379 304.772 62.1362 303.934 60.4603C303.18 58.7844 302.091 57.318 300.666 56.061C299.326 54.8041 297.734 53.8404 295.89 53.17C294.047 52.4159 292.077 52.0388 289.982 52.0388C287.887 52.0388 285.918 52.4159 284.075 53.17C282.231 53.8404 280.597 54.8041 279.173 56.061C277.832 57.318 276.743 58.7844 275.905 60.4603C275.15 62.0524 274.773 63.8122 274.773 65.7395H265.472C265.64 62.8066 266.394 59.9575 267.735 57.1923C269.159 54.427 271.003 51.9969 273.265 49.902C275.528 47.7233 278.167 46.0055 281.184 44.7485C284.2 43.4078 287.427 42.7374 290.862 42.7374C294.13 42.7374 297.189 43.3659 300.038 44.6228C302.887 45.796 305.359 47.43 307.454 49.5249C309.633 51.536 311.35 53.9661 312.607 56.8152C313.864 59.5805 314.493 62.5552 314.493 65.7395V106.842H306.323L305.191 97.0374C302.594 101.06 299.535 103.992 296.016 105.836C292.496 107.596 288.516 108.476 284.075 108.476C281.309 108.476 278.67 108.098 276.156 107.344C273.726 106.674 271.547 105.626 269.62 104.202C267.776 102.694 266.268 100.808 265.095 98.5457C264.006 96.1994 263.461 93.476 263.461 90.3756ZM272.637 90.627C273.056 93.7274 274.396 95.9899 276.659 97.4145C278.921 98.839 281.393 99.5513 284.075 99.5513C286.086 99.5513 288.097 99.2161 290.108 98.5457C292.203 97.8753 294.214 96.9536 296.141 95.7804C298.069 94.5235 299.787 93.099 301.295 91.5068C302.887 89.9147 304.186 88.2388 305.191 86.479V75.4179H294.759C291.658 75.4179 288.767 75.7531 286.086 76.4235C283.404 77.0939 281.058 78.0994 279.047 79.4402C277.036 80.6971 275.444 82.2892 274.271 84.2166C273.181 86.0601 272.637 88.1969 272.637 90.627Z" fill="white"/>
<path d="M335.521 18.8555V70.7673L362.797 43.9943H376.12L353.495 66.2423L378.383 106.842H367.322L346.331 72.4013L335.521 83.0853V106.842H326.22V18.8555H335.521Z" fill="white"/>
<path d="M379.056 43.9943H389.74L407.965 94.2721L426.191 43.9943H437.001L402.56 131.98H393.133L403.692 104.956L379.056 43.9943Z" fill="white"/>
<path d="M468.828 42.7374C473.101 42.7374 477.124 43.6173 480.894 45.377C484.749 47.0529 488.059 49.3992 490.824 52.4159C493.673 55.3487 495.894 58.8263 497.486 62.8485C499.162 66.7869 500 71.0186 500 75.5436C500 80.0686 499.162 84.3422 497.486 88.3645C495.894 92.3029 493.673 95.7804 490.824 98.7971C488.059 101.73 484.749 104.076 480.894 105.836C477.124 107.512 473.101 108.35 468.828 108.35C464.554 108.35 460.49 107.512 456.635 105.836C452.865 104.076 449.555 101.73 446.706 98.7971C443.94 95.7804 441.72 92.3029 440.044 88.3645C438.452 84.3422 437.656 80.0686 437.656 75.5436C437.656 71.0186 438.452 66.7869 440.044 62.8485C441.72 58.8263 443.94 55.3487 446.706 52.4159C449.555 49.3992 452.865 47.0529 456.635 45.377C460.49 43.6173 464.554 42.7374 468.828 42.7374ZM447.585 75.5436C447.585 78.8955 448.088 81.9959 449.094 84.845C450.183 87.6941 451.65 90.1661 453.493 92.261C455.42 94.3559 457.683 96.0318 460.281 97.2888C462.878 98.4619 465.727 99.0485 468.828 99.0485C471.928 99.0485 474.777 98.4619 477.375 97.2888C479.973 96.0318 482.193 94.3559 484.037 92.261C485.964 90.1661 487.431 87.6941 488.436 84.845C489.525 81.9959 490.07 78.8955 490.07 75.5436C490.07 72.1918 489.525 69.0913 488.436 66.2423C487.431 63.3932 485.964 60.9212 484.037 58.8263C482.193 56.7314 479.973 55.0974 477.375 53.9242C474.777 52.6673 471.928 52.0388 468.828 52.0388C465.727 52.0388 462.878 52.6673 460.281 53.9242C457.683 55.0974 455.42 56.7314 453.493 58.8263C451.65 60.9212 450.183 63.3932 449.094 66.2423C448.088 69.0913 447.585 72.1918 447.585 75.5436Z" fill="white"/>
</svg>
