<svg width="1000" height="277" viewBox="0 0 1000 277" fill="none" xmlns="http://www.w3.org/2000/svg">
<circle cx="168.988" cy="138.264" r="130.583" fill="url(#paint0_radial_148_319)" stroke="white" stroke-width="15.3626"/>
<line x1="337.978" y1="138.265" x2="3.01818e-05" y2="138.265" stroke="white" stroke-width="15.3626"/>
<line x1="168.99" y1="199.716" x2="168.99" y2="76.8146" stroke="white" stroke-width="15.3626"/>
<path d="M388.255 87.7358H403.339V37.7095H421.941V87.7358H452.108V104.83H421.941V196.587H453.365V213.682H433.505C424.455 213.682 417.165 210.916 411.635 205.386C406.104 199.855 403.339 192.565 403.339 183.515V104.83H388.255V87.7358Z" fill="white"/>
<path d="M469.034 213.682V87.9872H485.374L487.636 107.596C489.815 103.071 492.413 99.3835 495.429 96.5345C498.446 93.6854 501.63 91.5067 504.982 89.9983C508.334 88.3224 511.77 87.1493 515.289 86.4789C518.809 85.8085 522.077 85.4733 525.093 85.4733V104.076C524.423 103.909 523.753 103.825 523.082 103.825C522.579 103.825 522.077 103.825 521.574 103.825C517.384 103.825 513.278 104.579 509.256 106.087C505.234 107.596 501.63 109.774 498.446 112.623C495.262 115.305 492.664 118.573 490.653 122.427C488.642 126.282 487.636 130.556 487.636 135.248V213.682H469.034Z" fill="white"/>
<path d="M526.922 180.75C526.922 173.04 528.682 166.337 532.201 160.639C535.72 154.94 540.245 150.248 545.776 146.561C551.474 142.874 557.843 140.192 564.881 138.516C572.088 136.673 579.294 135.751 586.501 135.751H610.383V131.729C610.383 127.874 609.545 124.271 607.869 120.919C606.361 117.567 604.182 114.634 601.333 112.121C598.651 109.607 595.467 107.679 591.78 106.339C588.093 104.83 584.155 104.076 579.965 104.076C575.775 104.076 571.837 104.83 568.15 106.339C564.463 107.679 561.194 109.607 558.345 112.121C555.664 114.634 553.485 117.567 551.809 120.919C550.301 124.103 549.547 127.623 549.547 131.477H530.944C531.279 125.612 532.788 119.914 535.469 114.383C538.318 108.853 542.005 103.992 546.53 99.8025C551.055 95.4451 556.334 92.0094 562.368 89.4956C568.401 86.8141 574.853 85.4733 581.725 85.4733C588.261 85.4733 594.378 86.7303 600.076 89.2442C605.774 91.5905 610.718 94.8585 614.908 99.0483C619.265 103.071 622.701 107.931 625.215 113.629C627.729 119.159 628.986 125.109 628.986 131.477V213.682H612.645L610.383 194.073C605.188 202.118 599.07 207.983 592.031 211.67C584.993 215.19 577.032 216.95 568.15 216.95C562.619 216.95 557.34 216.195 552.312 214.687C547.452 213.346 543.094 211.252 539.24 208.402C535.553 205.386 532.536 201.615 530.19 197.09C528.011 192.397 526.922 186.951 526.922 180.75ZM545.273 181.252C546.111 187.453 548.793 191.978 553.318 194.827C557.843 197.677 562.787 199.101 568.15 199.101C572.172 199.101 576.194 198.431 580.216 197.09C584.406 195.749 588.428 193.906 592.283 191.559C596.137 189.046 599.573 186.196 602.59 183.012C605.774 179.828 608.372 176.476 610.383 172.957V150.834H589.518C583.317 150.834 577.535 151.505 572.172 152.846C566.809 154.186 562.116 156.197 558.094 158.879C554.072 161.393 550.888 164.577 548.541 168.432C546.363 172.119 545.273 176.392 545.273 181.252Z" fill="white"/>
<path d="M671.042 37.7095V141.533L725.594 87.9872H752.241L706.991 132.483L756.766 213.682H734.643L692.662 144.801L671.042 166.169V213.682H652.439V37.7095H671.042Z" fill="white"/>
<path d="M758.111 87.9872H779.479L815.93 188.543L852.382 87.9872H874.001L805.121 263.959H786.267L807.383 209.911L758.111 87.9872Z" fill="white"/>
<path d="M937.656 85.4733C946.203 85.4733 954.247 87.2331 961.789 90.7525C969.498 94.1044 976.118 98.7969 981.649 104.83C987.347 110.696 991.788 117.651 994.972 125.696C998.324 133.572 1000 142.036 1000 151.086C1000 160.136 998.324 168.683 994.972 176.727C991.788 184.604 987.347 191.559 981.649 197.593C976.118 203.458 969.498 208.151 961.789 211.67C954.247 215.022 946.203 216.698 937.656 216.698C929.108 216.698 920.98 215.022 913.271 211.67C905.729 208.151 899.109 203.458 893.411 197.593C887.881 191.559 883.439 184.604 880.088 176.727C876.903 168.683 875.311 160.136 875.311 151.086C875.311 142.036 876.903 133.572 880.088 125.696C883.439 117.651 887.881 110.696 893.411 104.83C899.109 98.7969 905.729 94.1044 913.271 90.7525C920.98 87.2331 929.108 85.4733 937.656 85.4733ZM895.171 151.086C895.171 157.79 896.177 163.99 898.188 169.689C900.366 175.387 903.299 180.331 906.986 184.521C910.841 188.71 915.366 192.062 920.561 194.576C925.757 196.922 931.455 198.096 937.656 198.096C943.857 198.096 949.555 196.922 954.75 194.576C959.945 192.062 964.387 188.71 968.074 184.521C971.928 180.331 974.861 175.387 976.872 169.689C979.051 163.99 980.14 157.79 980.14 151.086C980.14 144.382 979.051 138.181 976.872 132.483C974.861 126.785 971.928 121.841 968.074 117.651C964.387 113.461 959.945 110.193 954.75 107.847C949.555 105.333 943.857 104.076 937.656 104.076C931.455 104.076 925.757 105.333 920.561 107.847C915.366 110.193 910.841 113.461 906.986 117.651C903.299 121.841 900.366 126.785 898.188 132.483C896.177 138.181 895.171 144.382 895.171 151.086Z" fill="white"/>
<defs>
<radialGradient id="paint0_radial_148_319" cx="0" cy="0" r="1" gradientUnits="userSpaceOnUse" gradientTransform="translate(168.988 138.264) rotate(90) scale(138.264)">
<stop stop-color="white" stop-opacity="0"/>
<stop offset="1" stop-color="white" stop-opacity="0.1"/>
</radialGradient>
</defs>
</svg>
